Coordinates
version=1
nRows=49
nColumns=12
inDegrees=yes

Units are S.I. units (second, meters, Newtons, ...)
Angles are in degrees

endheader
time	SC_y	SC_z	SC_x	AC_y	AC_z	AC_x	GH_y	GH_z	GH_yy	EL_x	PS_y
       0.0              -12.78          31.52          50.48          62.27         -18.43         -13.11         -135.3          57.63         -80.92          17.72          75.95
   0.04575              -12.78          31.52          50.48          62.27         -18.43         -13.11         -135.3          57.63         -80.89          17.73          75.95
    0.0915              -12.79          31.52          50.48          62.27         -18.42          -13.1         -135.3          57.62         -80.86          17.74          75.96
    0.1373              -12.79          31.52          50.47          62.27         -18.42          -13.1         -135.3          57.61         -80.82          17.74          75.96
     0.183               -12.8          31.52          50.47          62.27         -18.41          -13.1         -135.3           57.6         -80.78          17.75          75.97
    0.2288               -12.8          31.52          50.47          62.26         -18.41          -13.1         -135.2           57.6         -80.74          17.76          75.97
    0.2745              -12.81          31.52          50.46          62.26          -18.4         -13.09         -135.2          57.59          -80.7          17.77          75.98
    0.3203              -12.81          31.52          50.46          62.26          -18.4         -13.09         -135.2          57.58         -80.65          17.78          75.99
     0.366              -12.82          31.52          50.45          62.26         -18.39         -13.09         -135.2          57.57          -80.6          17.79           76.0
    0.4118              -12.82          31.52          50.45          62.25         -18.38         -13.09         -135.2          57.56         -80.55          17.81          76.01
    0.4575              -12.83          31.52          50.44          62.25         -18.38         -13.08         -135.2          57.55         -80.49          17.82          76.01
    0.5033              -12.83          31.52          50.44          62.25         -18.37         -13.08         -135.2          57.54         -80.43          17.83          76.02
     0.549              -12.84          31.52          50.43          62.25         -18.36         -13.08         -135.1          57.53         -80.37          17.85          76.03
    0.5948              -12.85          31.52          50.42          62.24         -18.35         -13.07         -135.1          57.51         -80.29          17.86          76.05
    0.6405              -12.86          31.52          50.42          62.24         -18.34         -13.07         -135.1           57.5         -80.22          17.88          76.06
    0.6863              -12.87          31.52          50.41          62.23         -18.33         -13.06         -135.1          57.48         -80.13           17.9          76.07
     0.732              -12.88          31.52           50.4          62.23         -18.32         -13.06         -135.0          57.46         -80.04          17.92          76.09
    0.7778              -12.89          31.52          50.39          62.23         -18.31         -13.05         -135.0          57.44         -79.94          17.94           76.1
    0.8235               -12.9          31.52          50.38          62.22         -18.29         -13.05         -135.0          57.42         -79.83          17.97          76.12
    0.8693              -12.91          31.52          50.37          62.21         -18.28         -13.04         -134.9           57.4         -79.71           18.0          76.14
     0.915              -12.93          31.52          50.36          62.21         -18.26         -13.03         -134.9          57.38         -79.58          18.03          76.16
    0.9608              -12.94          31.52          50.34           62.2         -18.25         -13.02         -134.9          57.35         -79.44          18.06          76.18
     1.007              -12.96          31.52          50.33          62.19         -18.23         -13.01         -134.8          57.32         -79.28           18.1          76.21
     1.052              -12.98          31.52          50.31          62.19          -18.2          -13.0         -134.7          57.28          -79.1          18.14          76.24
     1.098               -13.0          31.52          50.29          62.18         -18.18         -12.99         -134.7          57.25         -78.91          18.18          76.27
     1.144              -13.03          31.52          50.27          62.17         -18.15         -12.98         -134.6          57.21         -78.69          18.23           76.3
      1.19              -13.05          31.52          50.25          62.15         -18.12         -12.97         -134.5          57.16         -78.44          18.29          76.34
     1.235              -13.08          31.52          50.22          62.14         -18.09         -12.95         -134.5          57.11         -78.17          18.35          76.39
     1.281              -13.12          31.52          50.19          62.13         -18.05         -12.93         -134.4          57.05         -77.86          18.42          76.43
     1.327              -13.16          31.52          50.15          62.11          -18.0         -12.91         -134.3          56.98          -77.5           18.5          76.49
     1.373               -13.2          31.52          50.12          62.09         -17.95         -12.89         -134.1           56.9          -77.1          18.59          76.56
     1.418              -13.25          31.52          50.07          62.07         -17.89         -12.87         -134.0          56.82         -76.63           18.7          76.63
     1.464              -13.31          31.52          50.02          62.04         -17.83         -12.84         -133.8          56.71          -76.1          18.82          76.71
      1.51              -13.38          31.52          49.96          62.01         -17.75          -12.8         -133.6           56.6         -75.48          18.96          76.81
     1.556              -13.46          31.52          49.89          61.98         -17.66         -12.76         -133.4          56.46         -74.75          19.13          76.93
     1.601              -13.55          31.52          49.81          61.94         -17.55         -12.71         -133.2          56.29         -73.89          19.32          77.07
     1.647              -13.67          31.52          49.71          61.89         -17.42         -12.66         -132.9           56.1         -72.88          19.55          77.23
     1.693               -13.8          31.52          49.59          61.83         -17.27         -12.59         -132.5          55.87         -71.65          19.83          77.42
     1.739              -13.96          31.51          49.45          61.76         -17.08          -12.5         -132.0          55.59         -70.18          20.17          77.66
     1.784              -14.16          31.51          49.27          61.67         -16.86          -12.4         -131.5          55.24         -68.37          20.58          77.95
      1.83              -14.41          31.51          49.06          61.57         -16.58         -12.28         -130.8          54.82         -66.15          21.09           78.3
     1.876              -14.71          31.51          48.79          61.44         -16.23         -12.12         -130.0          54.29         -63.37          21.72          78.74
     1.922               -15.1          31.51          48.45          61.27         -15.79         -11.93         -128.9          53.63         -59.87          22.52           79.3
     1.967              -15.58           31.5          48.03          61.06         -15.24         -11.68         -127.6          52.78         -55.42          23.53          80.01
     2.013              -16.21           31.5          47.48          60.79         -14.52         -11.36         -125.8           51.7         -49.73          24.83          80.92
     2.059              -17.01          31.49          46.77          60.44         -13.61         -10.95         -123.6          50.31         -42.43          26.49          82.08
     2.105              -18.04          31.48          45.87          59.99         -12.44         -10.42         -120.8          48.53         -33.09          28.62          83.57
      2.15              -19.33          31.47          44.74          59.43         -10.97         -9.766         -117.2           46.3         -21.36          31.29          85.44
     2.196               -20.9          31.46          43.36          58.75         -9.177         -8.964         -112.9          43.58         -7.063          34.55          87.72
